# MagicaVoxel @ Ephtracy

# group
g FloorWithCarpet

# material
mtllib FloorWithCarpet.mtl
usemtl palette

# normals
vn -1 0 0
vn 1 0 0
vn 0 0 1
vn 0 0 -1
vn 0 -1 0
vn 0 1 0

# texcoords
vt 0.0292969 0.5
vt 0.310547 0.5
vt 0.587891 0.5
vt 0.619141 0.5

# verts
v -50 0 50
v -50 0 -50
v -50 1 50
v -50 1 -50
v 50 0 50
v 50 0 -50
v 50 1 50
v 50 1 -50
v -50 0 50
v -50 1 50
v 50 0 50
v 50 1 50
v -50 0 -50
v -50 1 -50
v 50 0 -50
v 50 1 -50
v -50 0 50
v 50 0 50
v -30 0 35
v 5 0 35
v -13 0 33
v -12 0 33
v -16 0 31
v -13 0 31
v -15 0 30
v -12 0 30
v -15 0 28
v -9 0 28
v -16 0 27
v -10 0 27
v -15 0 25
v -10 0 25
v -14 0 24
v -9 0 24
v -14 0 22
v -10 0 22
v -15 0 21
v -11 0 21
v -13 0 19
v -11 0 19
v -12 0 18
v -10 0 18
v -16 0 16
v -13 0 16
v -12 0 16
v -9 0 16
v -18 0 15
v -16 0 15
v -9 0 15
v -7 0 15
v -20 0 14
v -18 0 14
v -7 0 14
v -5 0 14
v -21 0 13
v -20 0 13
v -5 0 13
v -4 0 13
v -22 0 12
v -21 0 12
v -15 0 12
v -10 0 12
v -4 0 12
v -3 0 12
v -17 0 11
v -15 0 11
v -10 0 11
v -8 0 11
v -23 0 10
v -22 0 10
v -18 0 10
v -17 0 10
v -8 0 10
v -7 0 10
v -3 0 10
v -2 0 10
v -19 0 9
v -18 0 9
v -7 0 9
v -6 0 9
v -24 0 8
v -23 0 8
v -2 0 8
v -1 0 8
v -20 0 7
v -19 0 7
v -6 0 7
v -5 0 7
v -20 0 2
v -19 0 2
v -6 0 2
v -5 0 2
v -24 0 1
v -23 0 1
v -2 0 1
v -1 0 1
v -19 0 -0
v -18 0 -0
v -7 0 -0
v -6 0 -0
v -23 0 -1
v -22 0 -1
v -18 0 -1
v -17 0 -1
v -8 0 -1
v -7 0 -1
v -3 0 -1
v -2 0 -1
v -17 0 -2
v -15 0 -2
v -10 0 -2
v -8 0 -2
v -22 0 -3
v -21 0 -3
v -15 0 -3
v -10 0 -3
v -4 0 -3
v -3 0 -3
v -21 0 -4
v -20 0 -4
v -5 0 -4
v -4 0 -4
v -20 0 -5
v -18 0 -5
v -7 0 -5
v -5 0 -5
v -18 0 -6
v -16 0 -6
v -9 0 -6
v -7 0 -6
v -16 0 -7
v -13 0 -7
v -12 0 -7
v -9 0 -7
v -15 0 -9
v -13 0 -9
v -14 0 -10
v -12 0 -10
v -14 0 -12
v -11 0 -12
v -15 0 -13
v -12 0 -13
v -16 0 -15
v -12 0 -15
v -15 0 -16
v -11 0 -16
v -15 0 -18
v -10 0 -18
v -16 0 -19
v -11 0 -19
v -14 0 -21
v -11 0 -21
v -13 0 -22
v -10 0 -22
v -14 0 -24
v -13 0 -24
v -30 0 -26
v 5 0 -26
v -50 0 -50
v 50 0 -50
v -50 1 50
v 50 1 50
v -30 1 35
v 5 1 35
v -13 1 33
v -12 1 33
v -16 1 31
v -13 1 31
v -15 1 30
v -12 1 30
v -15 1 28
v -9 1 28
v -16 1 27
v -10 1 27
v -15 1 25
v -10 1 25
v -14 1 24
v -9 1 24
v -14 1 22
v -10 1 22
v -15 1 21
v -11 1 21
v -13 1 19
v -11 1 19
v -12 1 18
v -10 1 18
v -16 1 16
v -13 1 16
v -12 1 16
v -9 1 16
v -18 1 15
v -16 1 15
v -9 1 15
v -7 1 15
v -20 1 14
v -18 1 14
v -7 1 14
v -5 1 14
v -21 1 13
v -20 1 13
v -5 1 13
v -4 1 13
v -22 1 12
v -21 1 12
v -15 1 12
v -10 1 12
v -4 1 12
v -3 1 12
v -17 1 11
v -15 1 11
v -10 1 11
v -8 1 11
v -23 1 10
v -22 1 10
v -18 1 10
v -17 1 10
v -8 1 10
v -7 1 10
v -3 1 10
v -2 1 10
v -19 1 9
v -18 1 9
v -7 1 9
v -6 1 9
v -24 1 8
v -23 1 8
v -2 1 8
v -1 1 8
v -20 1 7
v -19 1 7
v -6 1 7
v -5 1 7
v -20 1 2
v -19 1 2
v -6 1 2
v -5 1 2
v -24 1 1
v -23 1 1
v -2 1 1
v -1 1 1
v -19 1 -0
v -18 1 -0
v -7 1 -0
v -6 1 -0
v -23 1 -1
v -22 1 -1
v -18 1 -1
v -17 1 -1
v -8 1 -1
v -7 1 -1
v -3 1 -1
v -2 1 -1
v -17 1 -2
v -15 1 -2
v -10 1 -2
v -8 1 -2
v -22 1 -3
v -21 1 -3
v -15 1 -3
v -10 1 -3
v -4 1 -3
v -3 1 -3
v -21 1 -4
v -20 1 -4
v -5 1 -4
v -4 1 -4
v -20 1 -5
v -18 1 -5
v -7 1 -5
v -5 1 -5
v -18 1 -6
v -16 1 -6
v -9 1 -6
v -7 1 -6
v -16 1 -7
v -13 1 -7
v -12 1 -7
v -9 1 -7
v -15 1 -9
v -13 1 -9
v -14 1 -10
v -12 1 -10
v -14 1 -12
v -11 1 -12
v -15 1 -13
v -12 1 -13
v -16 1 -15
v -12 1 -15
v -15 1 -16
v -11 1 -16
v -15 1 -18
v -10 1 -18
v -16 1 -19
v -11 1 -19
v -14 1 -21
v -11 1 -21
v -13 1 -22
v -10 1 -22
v -14 1 -24
v -13 1 -24
v -30 1 -26
v 5 1 -26
v -50 1 -50
v 50 1 -50

# faces
f 3/1/1 2/1/1 1/1/1
f 4/1/1 2/1/1 3/1/1
f 5/1/2 6/1/2 7/1/2
f 7/1/2 6/1/2 8/1/2
f 11/1/3 10/1/3 9/1/3
f 12/1/3 10/1/3 11/1/3
f 13/1/4 14/1/4 15/1/4
f 15/1/4 14/1/4 16/1/4
f 19/1/5 18/1/5 17/1/5
f 20/1/5 18/1/5 19/1/5
f 21/2/5 20/2/5 19/2/5
f 22/2/5 20/2/5 21/2/5
f 23/2/5 21/2/5 19/2/5
f 24/4/5 22/4/5 21/4/5
f 24/2/5 21/2/5 23/2/5
f 25/4/5 24/4/5 23/4/5
f 26/2/5 20/2/5 22/2/5
f 26/4/5 24/4/5 25/4/5
f 26/4/5 22/4/5 24/4/5
f 27/4/5 25/4/5 23/4/5
f 27/2/5 26/2/5 25/2/5
f 28/2/5 20/2/5 26/2/5
f 28/2/5 26/2/5 27/2/5
f 29/4/5 27/4/5 23/4/5
f 29/2/5 23/2/5 19/2/5
f 29/4/5 28/4/5 27/4/5
f 30/4/5 28/4/5 29/4/5
f 31/2/5 30/2/5 29/2/5
f 32/4/5 28/4/5 30/4/5
f 32/2/5 30/2/5 31/2/5
f 33/4/5 32/4/5 31/4/5
f 34/2/5 20/2/5 28/2/5
f 34/4/5 32/4/5 33/4/5
f 34/4/5 28/4/5 32/4/5
f 35/4/5 33/4/5 31/4/5
f 35/2/5 34/2/5 33/2/5
f 36/2/5 34/2/5 35/2/5
f 37/2/5 31/2/5 29/2/5
f 37/4/5 35/4/5 31/4/5
f 37/4/5 36/4/5 35/4/5
f 38/4/5 36/4/5 37/4/5
f 39/2/5 38/2/5 37/2/5
f 40/4/5 36/4/5 38/4/5
f 40/2/5 38/2/5 39/2/5
f 41/4/5 40/4/5 39/4/5
f 42/2/5 34/2/5 36/2/5
f 42/4/5 40/4/5 41/4/5
f 42/4/5 36/4/5 40/4/5
f 43/2/5 29/2/5 19/2/5
f 43/2/5 37/2/5 29/2/5
f 43/2/5 39/2/5 37/2/5
f 44/4/5 41/4/5 39/4/5
f 44/2/5 39/2/5 43/2/5
f 45/2/5 42/2/5 41/2/5
f 45/4/5 41/4/5 44/4/5
f 46/2/5 20/2/5 34/2/5
f 46/2/5 42/2/5 45/2/5
f 46/2/5 34/2/5 42/2/5
f 47/2/5 43/2/5 19/2/5
f 48/3/5 45/3/5 44/3/5
f 48/2/5 43/2/5 47/2/5
f 48/3/5 44/3/5 43/3/5
f 48/3/5 46/3/5 45/3/5
f 49/2/5 20/2/5 46/2/5
f 49/3/5 46/3/5 48/3/5
f 50/2/5 20/2/5 49/2/5
f 51/2/5 47/2/5 19/2/5
f 52/3/5 48/3/5 47/3/5
f 52/2/5 47/2/5 51/2/5
f 52/3/5 49/3/5 48/3/5
f 52/3/5 50/3/5 49/3/5
f 53/2/5 20/2/5 50/2/5
f 53/3/5 50/3/5 52/3/5
f 54/2/5 20/2/5 53/2/5
f 55/2/5 51/2/5 19/2/5
f 56/3/5 52/3/5 51/3/5
f 56/2/5 51/2/5 55/2/5
f 56/3/5 53/3/5 52/3/5
f 56/3/5 54/3/5 53/3/5
f 57/2/5 20/2/5 54/2/5
f 57/3/5 54/3/5 56/3/5
f 58/2/5 20/2/5 57/2/5
f 59/2/5 55/2/5 19/2/5
f 60/3/5 56/3/5 55/3/5
f 60/2/5 55/2/5 59/2/5
f 60/3/5 57/3/5 56/3/5
f 60/3/5 58/3/5 57/3/5
f 61/3/5 58/3/5 60/3/5
f 62/3/5 58/3/5 61/3/5
f 63/2/5 20/2/5 58/2/5
f 63/3/5 58/3/5 62/3/5
f 64/2/5 20/2/5 63/2/5
f 65/3/5 60/3/5 59/3/5
f 65/3/5 61/3/5 60/3/5
f 66/4/5 62/4/5 61/4/5
f 66/3/5 61/3/5 65/3/5
f 67/3/5 64/3/5 63/3/5
f 67/4/5 62/4/5 66/4/5
f 67/3/5 63/3/5 62/3/5
f 68/3/5 64/3/5 67/3/5
f 69/2/5 59/2/5 19/2/5
f 70/3/5 65/3/5 59/3/5
f 70/2/5 59/2/5 69/2/5
f 71/3/5 65/3/5 70/3/5
f 72/4/5 66/4/5 65/4/5
f 72/3/5 65/3/5 71/3/5
f 72/4/5 67/4/5 66/4/5
f 72/4/5 68/4/5 67/4/5
f 73/3/5 64/3/5 68/3/5
f 73/4/5 68/4/5 72/4/5
f 74/3/5 64/3/5 73/3/5
f 75/2/5 20/2/5 64/2/5
f 75/3/5 64/3/5 74/3/5
f 76/2/5 20/2/5 75/2/5
f 77/3/5 71/3/5 70/3/5
f 77/3/5 70/3/5 69/3/5
f 78/4/5 72/4/5 71/4/5
f 78/3/5 71/3/5 77/3/5
f 78/4/5 74/4/5 73/4/5
f 78/4/5 73/4/5 72/4/5
f 79/3/5 75/3/5 74/3/5
f 79/4/5 74/4/5 78/4/5
f 79/3/5 76/3/5 75/3/5
f 80/3/5 76/3/5 79/3/5
f 81/2/5 69/2/5 19/2/5
f 82/3/5 77/3/5 69/3/5
f 82/2/5 69/2/5 81/2/5
f 83/3/5 76/3/5 80/3/5
f 83/2/5 20/2/5 76/2/5
f 84/2/5 20/2/5 83/2/5
f 85/3/5 77/3/5 82/3/5
f 85/3/5 82/3/5 81/3/5
f 86/4/5 78/4/5 77/4/5
f 86/3/5 77/3/5 85/3/5
f 86/4/5 79/4/5 78/4/5
f 86/4/5 80/4/5 79/4/5
f 87/3/5 84/3/5 83/3/5
f 87/4/5 80/4/5 86/4/5
f 87/3/5 83/3/5 80/3/5
f 88/3/5 84/3/5 87/3/5
f 89/3/5 85/3/5 81/3/5
f 89/4/5 86/4/5 85/4/5
f 89/4/5 88/4/5 87/4/5
f 89/4/5 87/4/5 86/4/5
f 90/4/5 88/4/5 89/4/5
f 91/4/5 88/4/5 90/4/5
f 92/3/5 84/3/5 88/3/5
f 92/4/5 88/4/5 91/4/5
f 93/2/5 81/2/5 19/2/5
f 93/3/5 89/3/5 81/3/5
f 93/3/5 90/3/5 89/3/5
f 94/3/5 90/3/5 93/3/5
f 95/3/5 84/3/5 92/3/5
f 95/3/5 92/3/5 91/3/5
f 96/2/5 20/2/5 84/2/5
f 96/3/5 84/3/5 95/3/5
f 97/3/5 90/3/5 94/3/5
f 97/4/5 91/4/5 90/4/5
f 98/4/5 91/4/5 97/4/5
f 99/4/5 91/4/5 98/4/5
f 100/3/5 95/3/5 91/3/5
f 100/4/5 91/4/5 99/4/5
f 101/2/5 94/2/5 93/2/5
f 101/3/5 97/3/5 94/3/5
f 101/3/5 98/3/5 97/3/5
f 102/3/5 98/3/5 101/3/5
f 103/4/5 99/4/5 98/4/5
f 103/3/5 98/3/5 102/3/5
f 104/4/5 99/4/5 103/4/5
f 105/4/5 99/4/5 104/4/5
f 106/3/5 100/3/5 99/3/5
f 106/4/5 99/4/5 105/4/5
f 107/3/5 95/3/5 100/3/5
f 107/3/5 100/3/5 106/3/5
f 108/2/5 96/2/5 95/2/5
f 108/3/5 95/3/5 107/3/5
f 109/4/5 105/4/5 104/4/5
f 109/3/5 103/3/5 102/3/5
f 109/3/5 104/3/5 103/3/5
f 110/4/5 105/4/5 109/4/5
f 111/4/5 105/4/5 110/4/5
f 112/3/5 107/3/5 106/3/5
f 112/4/5 105/4/5 111/4/5
f 112/3/5 106/3/5 105/3/5
f 113/2/5 102/2/5 101/2/5
f 113/3/5 110/3/5 109/3/5
f 113/3/5 109/3/5 102/3/5
f 114/3/5 110/3/5 113/3/5
f 115/4/5 111/4/5 110/4/5
f 115/3/5 110/3/5 114/3/5
f 116/3/5 112/3/5 111/3/5
f 116/4/5 111/4/5 115/4/5
f 117/3/5 107/3/5 112/3/5
f 117/3/5 112/3/5 116/3/5
f 118/2/5 108/2/5 107/2/5
f 118/3/5 107/3/5 117/3/5
f 119/3/5 116/3/5 115/3/5
f 119/2/5 114/2/5 113/2/5
f 119/3/5 115/3/5 114/3/5
f 119/3/5 117/3/5 116/3/5
f 120/3/5 117/3/5 119/3/5
f 121/3/5 117/3/5 120/3/5
f 122/2/5 118/2/5 117/2/5
f 122/3/5 117/3/5 121/3/5
f 123/3/5 121/3/5 120/3/5
f 123/2/5 120/2/5 119/2/5
f 124/3/5 121/3/5 123/3/5
f 125/3/5 121/3/5 124/3/5
f 126/2/5 122/2/5 121/2/5
f 126/3/5 121/3/5 125/3/5
f 127/3/5 125/3/5 124/3/5
f 127/2/5 124/2/5 123/2/5
f 128/3/5 125/3/5 127/3/5
f 129/3/5 125/3/5 128/3/5
f 130/2/5 126/2/5 125/2/5
f 130/3/5 125/3/5 129/3/5
f 131/3/5 129/3/5 128/3/5
f 131/2/5 128/2/5 127/2/5
f 132/3/5 129/3/5 131/3/5
f 133/3/5 129/3/5 132/3/5
f 134/2/5 130/2/5 129/2/5
f 134/3/5 129/3/5 133/3/5
f 135/2/5 132/2/5 131/2/5
f 136/4/5 133/4/5 132/4/5
f 136/2/5 132/2/5 135/2/5
f 137/4/5 136/4/5 135/4/5
f 138/2/5 134/2/5 133/2/5
f 138/4/5 136/4/5 137/4/5
f 138/4/5 133/4/5 136/4/5
f 139/4/5 137/4/5 135/4/5
f 139/2/5 138/2/5 137/2/5
f 140/2/5 134/2/5 138/2/5
f 140/2/5 138/2/5 139/2/5
f 141/2/5 135/2/5 131/2/5
f 141/4/5 139/4/5 135/4/5
f 141/4/5 140/4/5 139/4/5
f 142/4/5 140/4/5 141/4/5
f 143/2/5 131/2/5 127/2/5
f 143/2/5 141/2/5 131/2/5
f 143/2/5 142/2/5 141/2/5
f 144/4/5 140/4/5 142/4/5
f 144/2/5 142/2/5 143/2/5
f 145/4/5 144/4/5 143/4/5
f 146/2/5 134/2/5 140/2/5
f 146/4/5 144/4/5 145/4/5
f 146/4/5 140/4/5 144/4/5
f 147/4/5 145/4/5 143/4/5
f 147/2/5 146/2/5 145/2/5
f 148/2/5 134/2/5 146/2/5
f 148/2/5 146/2/5 147/2/5
f 149/4/5 147/4/5 143/4/5
f 149/2/5 143/2/5 127/2/5
f 149/4/5 148/4/5 147/4/5
f 150/4/5 148/4/5 149/4/5
f 151/2/5 150/2/5 149/2/5
f 152/4/5 148/4/5 150/4/5
f 152/2/5 150/2/5 151/2/5
f 153/4/5 152/4/5 151/4/5
f 154/2/5 134/2/5 148/2/5
f 154/4/5 152/4/5 153/4/5
f 154/4/5 148/4/5 152/4/5
f 155/4/5 153/4/5 151/4/5
f 155/2/5 151/2/5 149/2/5
f 156/2/5 154/2/5 153/2/5
f 156/4/5 153/4/5 155/4/5
f 157/1/5 19/1/5 17/1/5
f 157/2/5 113/2/5 101/2/5
f 157/2/5 156/2/5 155/2/5
f 157/2/5 155/2/5 149/2/5
f 157/2/5 149/2/5 127/2/5
f 157/2/5 93/2/5 19/2/5
f 157/2/5 101/2/5 93/2/5
f 157/2/5 127/2/5 123/2/5
f 157/2/5 119/2/5 113/2/5
f 157/2/5 123/2/5 119/2/5
f 158/2/5 154/2/5 156/2/5
f 158/2/5 156/2/5 157/2/5
f 158/1/5 18/1/5 20/1/5
f 158/2/5 122/2/5 126/2/5
f 158/2/5 126/2/5 130/2/5
f 158/2/5 96/2/5 108/2/5
f 158/2/5 134/2/5 154/2/5
f 158/2/5 130/2/5 134/2/5
f 158/2/5 118/2/5 122/2/5
f 158/2/5 20/2/5 96/2/5
f 158/2/5 108/2/5 118/2/5
f 159/1/5 157/1/5 17/1/5
f 159/1/5 158/1/5 157/1/5
f 160/1/5 18/1/5 158/1/5
f 160/1/5 158/1/5 159/1/5
f 161/1/6 162/1/6 163/1/6
f 163/1/6 162/1/6 164/1/6
f 163/2/6 164/2/6 165/2/6
f 165/2/6 164/2/6 166/2/6
f 163/2/6 165/2/6 167/2/6
f 165/4/6 166/4/6 168/4/6
f 167/2/6 165/2/6 168/2/6
f 167/4/6 168/4/6 169/4/6
f 166/2/6 164/2/6 170/2/6
f 169/4/6 168/4/6 170/4/6
f 168/4/6 166/4/6 170/4/6
f 167/4/6 169/4/6 171/4/6
f 169/2/6 170/2/6 171/2/6
f 170/2/6 164/2/6 172/2/6
f 171/2/6 170/2/6 172/2/6
f 167/4/6 171/4/6 173/4/6
f 163/2/6 167/2/6 173/2/6
f 171/4/6 172/4/6 173/4/6
f 173/4/6 172/4/6 174/4/6
f 173/2/6 174/2/6 175/2/6
f 174/4/6 172/4/6 176/4/6
f 175/2/6 174/2/6 176/2/6
f 175/4/6 176/4/6 177/4/6
f 172/2/6 164/2/6 178/2/6
f 177/4/6 176/4/6 178/4/6
f 176/4/6 172/4/6 178/4/6
f 175/4/6 177/4/6 179/4/6
f 177/2/6 178/2/6 179/2/6
f 179/2/6 178/2/6 180/2/6
f 173/2/6 175/2/6 181/2/6
f 175/4/6 179/4/6 181/4/6
f 179/4/6 180/4/6 181/4/6
f 181/4/6 180/4/6 182/4/6
f 181/2/6 182/2/6 183/2/6
f 182/4/6 180/4/6 184/4/6
f 183/2/6 182/2/6 184/2/6
f 183/4/6 184/4/6 185/4/6
f 180/2/6 178/2/6 186/2/6
f 185/4/6 184/4/6 186/4/6
f 184/4/6 180/4/6 186/4/6
f 163/2/6 173/2/6 187/2/6
f 173/2/6 181/2/6 187/2/6
f 181/2/6 183/2/6 187/2/6
f 183/4/6 185/4/6 188/4/6
f 187/2/6 183/2/6 188/2/6
f 185/2/6 186/2/6 189/2/6
f 188/4/6 185/4/6 189/4/6
f 178/2/6 164/2/6 190/2/6
f 189/2/6 186/2/6 190/2/6
f 186/2/6 178/2/6 190/2/6
f 163/2/6 187/2/6 191/2/6
f 188/3/6 189/3/6 192/3/6
f 191/2/6 187/2/6 192/2/6
f 187/3/6 188/3/6 192/3/6
f 189/3/6 190/3/6 192/3/6
f 190/2/6 164/2/6 193/2/6
f 192/3/6 190/3/6 193/3/6
f 193/2/6 164/2/6 194/2/6
f 163/2/6 191/2/6 195/2/6
f 191/3/6 192/3/6 196/3/6
f 195/2/6 191/2/6 196/2/6
f 192/3/6 193/3/6 196/3/6
f 193/3/6 194/3/6 196/3/6
f 194/2/6 164/2/6 197/2/6
f 196/3/6 194/3/6 197/3/6
f 197/2/6 164/2/6 198/2/6
f 163/2/6 195/2/6 199/2/6
f 195/3/6 196/3/6 200/3/6
f 199/2/6 195/2/6 200/2/6
f 196/3/6 197/3/6 200/3/6
f 197/3/6 198/3/6 200/3/6
f 198/2/6 164/2/6 201/2/6
f 200/3/6 198/3/6 201/3/6
f 201/2/6 164/2/6 202/2/6
f 163/2/6 199/2/6 203/2/6
f 199/3/6 200/3/6 204/3/6
f 203/2/6 199/2/6 204/2/6
f 200/3/6 201/3/6 204/3/6
f 201/3/6 202/3/6 204/3/6
f 204/3/6 202/3/6 205/3/6
f 205/3/6 202/3/6 206/3/6
f 202/2/6 164/2/6 207/2/6
f 206/3/6 202/3/6 207/3/6
f 207/2/6 164/2/6 208/2/6
f 203/3/6 204/3/6 209/3/6
f 204/3/6 205/3/6 209/3/6
f 205/4/6 206/4/6 210/4/6
f 209/3/6 205/3/6 210/3/6
f 207/3/6 208/3/6 211/3/6
f 210/4/6 206/4/6 211/4/6
f 206/3/6 207/3/6 211/3/6
f 211/3/6 208/3/6 212/3/6
f 163/2/6 203/2/6 213/2/6
f 203/3/6 209/3/6 214/3/6
f 213/2/6 203/2/6 214/2/6
f 214/3/6 209/3/6 215/3/6
f 209/4/6 210/4/6 216/4/6
f 215/3/6 209/3/6 216/3/6
f 210/4/6 211/4/6 216/4/6
f 211/4/6 212/4/6 216/4/6
f 212/3/6 208/3/6 217/3/6
f 216/4/6 212/4/6 217/4/6
f 217/3/6 208/3/6 218/3/6
f 208/2/6 164/2/6 219/2/6
f 218/3/6 208/3/6 219/3/6
f 219/2/6 164/2/6 220/2/6
f 214/3/6 215/3/6 221/3/6
f 213/3/6 214/3/6 221/3/6
f 215/4/6 216/4/6 222/4/6
f 221/3/6 215/3/6 222/3/6
f 217/4/6 218/4/6 222/4/6
f 216/4/6 217/4/6 222/4/6
f 218/3/6 219/3/6 223/3/6
f 222/4/6 218/4/6 223/4/6
f 219/3/6 220/3/6 223/3/6
f 223/3/6 220/3/6 224/3/6
f 163/2/6 213/2/6 225/2/6
f 213/3/6 221/3/6 226/3/6
f 225/2/6 213/2/6 226/2/6
f 224/3/6 220/3/6 227/3/6
f 220/2/6 164/2/6 227/2/6
f 227/2/6 164/2/6 228/2/6
f 226/3/6 221/3/6 229/3/6
f 225/3/6 226/3/6 229/3/6
f 221/4/6 222/4/6 230/4/6
f 229/3/6 221/3/6 230/3/6
f 222/4/6 223/4/6 230/4/6
f 223/4/6 224/4/6 230/4/6
f 227/3/6 228/3/6 231/3/6
f 230/4/6 224/4/6 231/4/6
f 224/3/6 227/3/6 231/3/6
f 231/3/6 228/3/6 232/3/6
f 225/3/6 229/3/6 233/3/6
f 229/4/6 230/4/6 233/4/6
f 231/4/6 232/4/6 233/4/6
f 230/4/6 231/4/6 233/4/6
f 233/4/6 232/4/6 234/4/6
f 234/4/6 232/4/6 235/4/6
f 232/3/6 228/3/6 236/3/6
f 235/4/6 232/4/6 236/4/6
f 163/2/6 225/2/6 237/2/6
f 225/3/6 233/3/6 237/3/6
f 233/3/6 234/3/6 237/3/6
f 237/3/6 234/3/6 238/3/6
f 236/3/6 228/3/6 239/3/6
f 235/3/6 236/3/6 239/3/6
f 228/2/6 164/2/6 240/2/6
f 239/3/6 228/3/6 240/3/6
f 238/3/6 234/3/6 241/3/6
f 234/4/6 235/4/6 241/4/6
f 241/4/6 235/4/6 242/4/6
f 242/4/6 235/4/6 243/4/6
f 235/3/6 239/3/6 244/3/6
f 243/4/6 235/4/6 244/4/6
f 237/2/6 238/2/6 245/2/6
f 238/3/6 241/3/6 245/3/6
f 241/3/6 242/3/6 245/3/6
f 245/3/6 242/3/6 246/3/6
f 242/4/6 243/4/6 247/4/6
f 246/3/6 242/3/6 247/3/6
f 247/4/6 243/4/6 248/4/6
f 248/4/6 243/4/6 249/4/6
f 243/3/6 244/3/6 250/3/6
f 249/4/6 243/4/6 250/4/6
f 244/3/6 239/3/6 251/3/6
f 250/3/6 244/3/6 251/3/6
f 239/2/6 240/2/6 252/2/6
f 251/3/6 239/3/6 252/3/6
f 248/4/6 249/4/6 253/4/6
f 246/3/6 247/3/6 253/3/6
f 247/3/6 248/3/6 253/3/6
f 253/4/6 249/4/6 254/4/6
f 254/4/6 249/4/6 255/4/6
f 250/3/6 251/3/6 256/3/6
f 255/4/6 249/4/6 256/4/6
f 249/3/6 250/3/6 256/3/6
f 245/2/6 246/2/6 257/2/6
f 253/3/6 254/3/6 257/3/6
f 246/3/6 253/3/6 257/3/6
f 257/3/6 254/3/6 258/3/6
f 254/4/6 255/4/6 259/4/6
f 258/3/6 254/3/6 259/3/6
f 255/3/6 256/3/6 260/3/6
f 259/4/6 255/4/6 260/4/6
f 256/3/6 251/3/6 261/3/6
f 260/3/6 256/3/6 261/3/6
f 251/2/6 252/2/6 262/2/6
f 261/3/6 251/3/6 262/3/6
f 259/3/6 260/3/6 263/3/6
f 257/2/6 258/2/6 263/2/6
f 258/3/6 259/3/6 263/3/6
f 260/3/6 261/3/6 263/3/6
f 263/3/6 261/3/6 264/3/6
f 264/3/6 261/3/6 265/3/6
f 261/2/6 262/2/6 266/2/6
f 265/3/6 261/3/6 266/3/6
f 264/3/6 265/3/6 267/3/6
f 263/2/6 264/2/6 267/2/6
f 267/3/6 265/3/6 268/3/6
f 268/3/6 265/3/6 269/3/6
f 265/2/6 266/2/6 270/2/6
f 269/3/6 265/3/6 270/3/6
f 268/3/6 269/3/6 271/3/6
f 267/2/6 268/2/6 271/2/6
f 271/3/6 269/3/6 272/3/6
f 272/3/6 269/3/6 273/3/6
f 269/2/6 270/2/6 274/2/6
f 273/3/6 269/3/6 274/3/6
f 272/3/6 273/3/6 275/3/6
f 271/2/6 272/2/6 275/2/6
f 275/3/6 273/3/6 276/3/6
f 276/3/6 273/3/6 277/3/6
f 273/2/6 274/2/6 278/2/6
f 277/3/6 273/3/6 278/3/6
f 275/2/6 276/2/6 279/2/6
f 276/4/6 277/4/6 280/4/6
f 279/2/6 276/2/6 280/2/6
f 279/4/6 280/4/6 281/4/6
f 277/2/6 278/2/6 282/2/6
f 281/4/6 280/4/6 282/4/6
f 280/4/6 277/4/6 282/4/6
f 279/4/6 281/4/6 283/4/6
f 281/2/6 282/2/6 283/2/6
f 282/2/6 278/2/6 284/2/6
f 283/2/6 282/2/6 284/2/6
f 275/2/6 279/2/6 285/2/6
f 279/4/6 283/4/6 285/4/6
f 283/4/6 284/4/6 285/4/6
f 285/4/6 284/4/6 286/4/6
f 271/2/6 275/2/6 287/2/6
f 275/2/6 285/2/6 287/2/6
f 285/2/6 286/2/6 287/2/6
f 286/4/6 284/4/6 288/4/6
f 287/2/6 286/2/6 288/2/6
f 287/4/6 288/4/6 289/4/6
f 284/2/6 278/2/6 290/2/6
f 289/4/6 288/4/6 290/4/6
f 288/4/6 284/4/6 290/4/6
f 287/4/6 289/4/6 291/4/6
f 289/2/6 290/2/6 291/2/6
f 290/2/6 278/2/6 292/2/6
f 291/2/6 290/2/6 292/2/6
f 287/4/6 291/4/6 293/4/6
f 271/2/6 287/2/6 293/2/6
f 291/4/6 292/4/6 293/4/6
f 293/4/6 292/4/6 294/4/6
f 293/2/6 294/2/6 295/2/6
f 294/4/6 292/4/6 296/4/6
f 295/2/6 294/2/6 296/2/6
f 295/4/6 296/4/6 297/4/6
f 292/2/6 278/2/6 298/2/6
f 297/4/6 296/4/6 298/4/6
f 296/4/6 292/4/6 298/4/6
f 295/4/6 297/4/6 299/4/6
f 293/2/6 295/2/6 299/2/6
f 297/2/6 298/2/6 300/2/6
f 299/4/6 297/4/6 300/4/6
f 161/1/6 163/1/6 301/1/6
f 245/2/6 257/2/6 301/2/6
f 299/2/6 300/2/6 301/2/6
f 293/2/6 299/2/6 301/2/6
f 271/2/6 293/2/6 301/2/6
f 163/2/6 237/2/6 301/2/6
f 237/2/6 245/2/6 301/2/6
f 267/2/6 271/2/6 301/2/6
f 257/2/6 263/2/6 301/2/6
f 263/2/6 267/2/6 301/2/6
f 300/2/6 298/2/6 302/2/6
f 301/2/6 300/2/6 302/2/6
f 164/1/6 162/1/6 302/1/6
f 270/2/6 266/2/6 302/2/6
f 274/2/6 270/2/6 302/2/6
f 252/2/6 240/2/6 302/2/6
f 298/2/6 278/2/6 302/2/6
f 278/2/6 274/2/6 302/2/6
f 266/2/6 262/2/6 302/2/6
f 240/2/6 164/2/6 302/2/6
f 262/2/6 252/2/6 302/2/6
f 161/1/6 301/1/6 303/1/6
f 301/1/6 302/1/6 303/1/6
f 302/1/6 162/1/6 304/1/6
f 303/1/6 302/1/6 304/1/6
