# MagicaVoxel @ Ephtracy

# group
g LightPinkFlowerNoLeaf

# material
mtllib LightPinkFlowerNoLeaf.mtl
usemtl palette

# normals
vn -1 0 0
vn 1 0 0
vn 0 0 1
vn 0 0 -1
vn 0 -1 0
vn 0 1 0

# texcoords
vt 0.0410156 0.5
vt 0.0683594 0.5
vt 0.0800781 0.5
vt 0.0839844 0.5
vt 0.537109 0.5

# verts
v -6.5 12 1
v -6.5 12 -0
v -6.5 14 1
v -6.5 14 -0
v -6.5 15 1
v -6.5 15 -0
v -6.5 17 1
v -6.5 17 -0
v -5.5 11 1
v -5.5 11 -0
v -5.5 12 1
v -5.5 12 -0
v -5.5 17 1
v -5.5 17 -0
v -5.5 18 1
v -5.5 18 -0
v -4.5 10 1
v -4.5 10 -0
v -4.5 11 1
v -4.5 11 -0
v -4.5 14 1
v -4.5 14 -0
v -4.5 15 1
v -4.5 15 -0
v -4.5 18 1
v -4.5 18 -0
v -4.5 19 1
v -4.5 19 -0
v -3.5 9 1
v -3.5 9 -0
v -3.5 10 1
v -3.5 10 -0
v -3.5 19 1
v -3.5 19 -0
v -3.5 20 1
v -3.5 20 -0
v -2.5 8 1
v -2.5 8 -0
v -2.5 9 1
v -2.5 9 -0
v -2.5 20 1
v -2.5 20 -0
v -2.5 21 1
v -2.5 21 -0
v -0.5 0 -0
v -0.5 0 -1
v -0.5 4 -0
v -0.5 4 -1
v -0.5 13 -0
v -0.5 13 -1
v -0.5 14 -0
v -0.5 15 -0
v -0.5 15 -1
v 0.5 4 -0
v 0.5 4 -1
v 0.5 6 -0
v 0.5 6 -1
v 0.5 8 1
v 0.5 8 -0
v 0.5 10 1
v 0.5 10 -0
v 0.5 11 -0
v 0.5 11 -1
v 0.5 13 -0
v 0.5 13 -1
v 0.5 19 1
v 0.5 19 -0
v 0.5 21 1
v 0.5 21 -0
v 1.5 7 -0
v 1.5 7 -1
v 1.5 8 -0
v 1.5 11 -0
v 1.5 11 -1
v 2.5 6 -0
v 2.5 6 -1
v 2.5 7 -0
v 2.5 7 -1
v -0.5 8 1
v -0.5 8 -0
v -0.5 10 1
v -0.5 10 -0
v -0.5 19 1
v -0.5 19 -0
v -0.5 21 1
v -0.5 21 -0
v 0.5 0 -0
v 0.5 0 -1
v 0.5 3 -0
v 0.5 3 -1
v 0.5 13 -0
v 0.5 13 -1
v 0.5 14 -0
v 0.5 15 -0
v 0.5 15 -1
v 1.5 3 -0
v 1.5 3 -1
v 1.5 5 -0
v 1.5 5 -1
v 1.5 11 -0
v 1.5 11 -1
v 1.5 12 -0
v 1.5 13 -0
v 1.5 13 -1
v 2.5 8 1
v 2.5 8 -0
v 2.5 8 -1
v 2.5 9 1
v 2.5 9 -0
v 2.5 11 -0
v 2.5 11 -1
v 2.5 20 1
v 2.5 20 -0
v 2.5 21 1
v 2.5 21 -0
v 3.5 5 -0
v 3.5 5 -1
v 3.5 8 -0
v 3.5 8 -1
v 3.5 9 1
v 3.5 9 -0
v 3.5 10 1
v 3.5 10 -0
v 3.5 19 1
v 3.5 19 -0
v 3.5 20 1
v 3.5 20 -0
v 4.5 10 1
v 4.5 10 -0
v 4.5 11 1
v 4.5 11 -0
v 4.5 14 1
v 4.5 14 -0
v 4.5 15 1
v 4.5 15 -0
v 4.5 18 1
v 4.5 18 -0
v 4.5 19 1
v 4.5 19 -0
v 5.5 11 1
v 5.5 11 -0
v 5.5 12 1
v 5.5 12 -0
v 5.5 17 1
v 5.5 17 -0
v 5.5 18 1
v 5.5 18 -0
v 6.5 12 1
v 6.5 12 -0
v 6.5 14 1
v 6.5 14 -0
v 6.5 15 1
v 6.5 15 -0
v 6.5 17 1
v 6.5 17 -0
v -6.5 12 1
v -6.5 14 1
v -6.5 15 1
v -6.5 17 1
v -5.5 11 1
v -5.5 12 1
v -5.5 17 1
v -5.5 18 1
v -4.5 10 1
v -4.5 11 1
v -4.5 14 1
v -4.5 15 1
v -4.5 18 1
v -4.5 19 1
v -3.5 9 1
v -3.5 10 1
v -3.5 11 1
v -3.5 12 1
v -3.5 17 1
v -3.5 18 1
v -3.5 19 1
v -3.5 20 1
v -2.5 8 1
v -2.5 9 1
v -2.5 11 1
v -2.5 12 1
v -2.5 13 1
v -2.5 16 1
v -2.5 17 1
v -2.5 18 1
v -2.5 20 1
v -2.5 21 1
v -1.5 12 1
v -1.5 13 1
v -1.5 14 1
v -1.5 15 1
v -1.5 16 1
v -1.5 17 1
v -0.5 8 1
v -0.5 10 1
v -0.5 13 1
v -0.5 14 1
v -0.5 15 1
v -0.5 16 1
v -0.5 19 1
v -0.5 21 1
v 0.5 8 1
v 0.5 10 1
v 0.5 13 1
v 0.5 14 1
v 0.5 15 1
v 0.5 16 1
v 0.5 19 1
v 0.5 21 1
v 1.5 12 1
v 1.5 13 1
v 1.5 14 1
v 1.5 15 1
v 1.5 16 1
v 1.5 17 1
v 2.5 8 1
v 2.5 9 1
v 2.5 11 1
v 2.5 12 1
v 2.5 13 1
v 2.5 16 1
v 2.5 17 1
v 2.5 18 1
v 2.5 20 1
v 2.5 21 1
v 3.5 9 1
v 3.5 10 1
v 3.5 11 1
v 3.5 12 1
v 3.5 17 1
v 3.5 18 1
v 3.5 19 1
v 3.5 20 1
v 4.5 10 1
v 4.5 11 1
v 4.5 14 1
v 4.5 15 1
v 4.5 18 1
v 4.5 19 1
v 5.5 11 1
v 5.5 12 1
v 5.5 17 1
v 5.5 18 1
v 6.5 12 1
v 6.5 14 1
v 6.5 15 1
v 6.5 17 1
v -0.5 0 -0
v -0.5 4 -0
v 0.5 0 -0
v 0.5 3 -0
v 0.5 4 -0
v 0.5 6 -0
v 1.5 3 -0
v 1.5 5 -0
v 1.5 7 -0
v 1.5 8 -0
v 2.5 6 -0
v 2.5 7 -0
v 2.5 8 -0
v 3.5 5 -0
v 3.5 8 -0
v -6.5 12 -0
v -6.5 14 -0
v -6.5 15 -0
v -6.5 17 -0
v -5.5 11 -0
v -5.5 12 -0
v -5.5 17 -0
v -5.5 18 -0
v -4.5 10 -0
v -4.5 11 -0
v -4.5 14 -0
v -4.5 15 -0
v -4.5 18 -0
v -4.5 19 -0
v -3.5 9 -0
v -3.5 10 -0
v -3.5 11 -0
v -3.5 12 -0
v -3.5 17 -0
v -3.5 18 -0
v -3.5 19 -0
v -3.5 20 -0
v -2.5 8 -0
v -2.5 9 -0
v -2.5 11 -0
v -2.5 12 -0
v -2.5 13 -0
v -2.5 16 -0
v -2.5 17 -0
v -2.5 18 -0
v -2.5 20 -0
v -2.5 21 -0
v -1.5 12 -0
v -1.5 13 -0
v -1.5 14 -0
v -1.5 15 -0
v -1.5 16 -0
v -1.5 17 -0
v -0.5 8 -0
v -0.5 10 -0
v -0.5 13 -0
v -0.5 14 -0
v -0.5 15 -0
v -0.5 16 -0
v -0.5 19 -0
v -0.5 21 -0
v 0.5 8 -0
v 0.5 10 -0
v 0.5 11 -0
v 0.5 13 -0
v 0.5 14 -0
v 0.5 15 -0
v 0.5 16 -0
v 0.5 19 -0
v 0.5 21 -0
v 1.5 8 -0
v 1.5 11 -0
v 1.5 12 -0
v 1.5 13 -0
v 1.5 14 -0
v 1.5 15 -0
v 1.5 16 -0
v 1.5 17 -0
v 2.5 9 -0
v 2.5 11 -0
v 2.5 12 -0
v 2.5 13 -0
v 2.5 16 -0
v 2.5 17 -0
v 2.5 18 -0
v 2.5 20 -0
v 2.5 21 -0
v 3.5 9 -0
v 3.5 10 -0
v 3.5 11 -0
v 3.5 12 -0
v 3.5 17 -0
v 3.5 18 -0
v 3.5 19 -0
v 3.5 20 -0
v 4.5 10 -0
v 4.5 11 -0
v 4.5 14 -0
v 4.5 15 -0
v 4.5 18 -0
v 4.5 19 -0
v 5.5 11 -0
v 5.5 12 -0
v 5.5 17 -0
v 5.5 18 -0
v 6.5 12 -0
v 6.5 14 -0
v 6.5 15 -0
v 6.5 17 -0
v -0.5 0 -1
v -0.5 4 -1
v -0.5 13 -1
v -0.5 15 -1
v 0.5 0 -1
v 0.5 3 -1
v 0.5 4 -1
v 0.5 6 -1
v 0.5 11 -1
v 0.5 13 -1
v 0.5 15 -1
v 1.5 3 -1
v 1.5 5 -1
v 1.5 7 -1
v 1.5 11 -1
v 1.5 13 -1
v 2.5 6 -1
v 2.5 7 -1
v 2.5 8 -1
v 2.5 11 -1
v 3.5 5 -1
v 3.5 8 -1
v -0.5 0 -0
v 0.5 0 -0
v -0.5 0 -1
v 0.5 0 -1
v 0.5 3 -0
v 1.5 3 -0
v 0.5 3 -1
v 1.5 3 -1
v 1.5 5 -0
v 3.5 5 -0
v 1.5 5 -1
v 3.5 5 -1
v 1.5 7 -0
v 2.5 7 -0
v 1.5 7 -1
v 2.5 7 -1
v -2.5 8 1
v -0.5 8 1
v 0.5 8 1
v 2.5 8 1
v -2.5 8 -0
v -0.5 8 -0
v 0.5 8 -0
v 1.5 8 -0
v 2.5 8 -0
v -3.5 9 1
v -2.5 9 1
v 2.5 9 1
v 3.5 9 1
v -3.5 9 -0
v -2.5 9 -0
v 2.5 9 -0
v 3.5 9 -0
v -4.5 10 1
v -3.5 10 1
v -0.5 10 1
v 0.5 10 1
v 3.5 10 1
v 4.5 10 1
v -4.5 10 -0
v -3.5 10 -0
v -0.5 10 -0
v 0.5 10 -0
v 3.5 10 -0
v 4.5 10 -0
v -5.5 11 1
v -4.5 11 1
v 4.5 11 1
v 5.5 11 1
v -5.5 11 -0
v -4.5 11 -0
v 0.5 11 -0
v 1.5 11 -0
v 4.5 11 -0
v 5.5 11 -0
v 0.5 11 -1
v 1.5 11 -1
v -6.5 12 1
v -5.5 12 1
v 5.5 12 1
v 6.5 12 1
v -6.5 12 -0
v -5.5 12 -0
v 5.5 12 -0
v 6.5 12 -0
v -0.5 13 -0
v 0.5 13 -0
v -0.5 13 -1
v 0.5 13 -1
v -6.5 15 1
v -4.5 15 1
v 4.5 15 1
v 6.5 15 1
v -6.5 15 -0
v -4.5 15 -0
v 4.5 15 -0
v 6.5 15 -0
v -0.5 4 -0
v 0.5 4 -0
v -0.5 4 -1
v 0.5 4 -1
v 0.5 6 -0
v 2.5 6 -0
v 0.5 6 -1
v 2.5 6 -1
v 2.5 8 -0
v 3.5 8 -0
v 2.5 8 -1
v 3.5 8 -1
v 1.5 11 -0
v 2.5 11 -0
v 1.5 11 -1
v 2.5 11 -1
v 0.5 13 -0
v 1.5 13 -0
v 0.5 13 -1
v 1.5 13 -1
v -6.5 14 1
v -4.5 14 1
v 4.5 14 1
v 6.5 14 1
v -6.5 14 -0
v -4.5 14 -0
v 4.5 14 -0
v 6.5 14 -0
v -0.5 15 -0
v 0.5 15 -0
v -0.5 15 -1
v 0.5 15 -1
v -6.5 17 1
v -5.5 17 1
v 5.5 17 1
v 6.5 17 1
v -6.5 17 -0
v -5.5 17 -0
v 5.5 17 -0
v 6.5 17 -0
v -5.5 18 1
v -4.5 18 1
v 4.5 18 1
v 5.5 18 1
v -5.5 18 -0
v -4.5 18 -0
v 4.5 18 -0
v 5.5 18 -0
v -4.5 19 1
v -3.5 19 1
v -0.5 19 1
v 0.5 19 1
v 3.5 19 1
v 4.5 19 1
v -4.5 19 -0
v -3.5 19 -0
v -0.5 19 -0
v 0.5 19 -0
v 3.5 19 -0
v 4.5 19 -0
v -3.5 20 1
v -2.5 20 1
v 2.5 20 1
v 3.5 20 1
v -3.5 20 -0
v -2.5 20 -0
v 2.5 20 -0
v 3.5 20 -0
v -2.5 21 1
v -0.5 21 1
v 0.5 21 1
v 2.5 21 1
v -2.5 21 -0
v -0.5 21 -0
v 0.5 21 -0
v 2.5 21 -0

# faces
f 3/4/1 2/4/1 1/4/1
f 4/4/1 2/4/1 3/4/1
f 7/4/1 6/4/1 5/4/1
f 8/4/1 6/4/1 7/4/1
f 11/4/1 10/4/1 9/4/1
f 12/4/1 10/4/1 11/4/1
f 15/4/1 14/4/1 13/4/1
f 16/4/1 14/4/1 15/4/1
f 19/4/1 18/4/1 17/4/1
f 20/4/1 18/4/1 19/4/1
f 23/4/1 22/4/1 21/4/1
f 24/4/1 22/4/1 23/4/1
f 27/4/1 26/4/1 25/4/1
f 28/4/1 26/4/1 27/4/1
f 31/4/1 30/4/1 29/4/1
f 32/4/1 30/4/1 31/4/1
f 35/4/1 34/4/1 33/4/1
f 36/4/1 34/4/1 35/4/1
f 39/4/1 38/4/1 37/4/1
f 40/4/1 38/4/1 39/4/1
f 43/4/1 42/4/1 41/4/1
f 44/4/1 42/4/1 43/4/1
f 47/5/1 46/5/1 45/5/1
f 48/5/1 46/5/1 47/5/1
f 51/5/1 50/5/1 49/5/1
f 52/5/1 50/5/1 51/5/1
f 53/5/1 50/5/1 52/5/1
f 56/5/1 55/5/1 54/5/1
f 57/5/1 55/5/1 56/5/1
f 60/4/1 59/4/1 58/4/1
f 61/4/1 59/4/1 60/4/1
f 64/5/1 63/5/1 62/5/1
f 65/5/1 63/5/1 64/5/1
f 68/4/1 67/4/1 66/4/1
f 69/4/1 67/4/1 68/4/1
f 72/5/1 71/5/1 70/5/1
f 73/5/1 71/5/1 72/5/1
f 74/5/1 71/5/1 73/5/1
f 77/5/1 76/5/1 75/5/1
f 78/5/1 76/5/1 77/5/1
f 79/4/2 80/4/2 81/4/2
f 81/4/2 80/4/2 82/4/2
f 83/4/2 84/4/2 85/4/2
f 85/4/2 84/4/2 86/4/2
f 87/5/2 88/5/2 89/5/2
f 89/5/2 88/5/2 90/5/2
f 91/5/2 92/5/2 93/5/2
f 93/5/2 92/5/2 94/5/2
f 94/5/2 92/5/2 95/5/2
f 96/5/2 97/5/2 98/5/2
f 98/5/2 97/5/2 99/5/2
f 100/5/2 101/5/2 102/5/2
f 102/5/2 101/5/2 103/5/2
f 103/5/2 101/5/2 104/5/2
f 105/4/2 106/4/2 108/4/2
f 106/5/2 107/5/2 109/5/2
f 108/4/2 106/4/2 109/4/2
f 109/5/2 107/5/2 110/5/2
f 110/5/2 107/5/2 111/5/2
f 112/4/2 113/4/2 114/4/2
f 114/4/2 113/4/2 115/4/2
f 116/5/2 117/5/2 118/5/2
f 118/5/2 117/5/2 119/5/2
f 120/4/2 121/4/2 122/4/2
f 122/4/2 121/4/2 123/4/2
f 124/4/2 125/4/2 126/4/2
f 126/4/2 125/4/2 127/4/2
f 128/4/2 129/4/2 130/4/2
f 130/4/2 129/4/2 131/4/2
f 132/4/2 133/4/2 134/4/2
f 134/4/2 133/4/2 135/4/2
f 136/4/2 137/4/2 138/4/2
f 138/4/2 137/4/2 139/4/2
f 140/4/2 141/4/2 142/4/2
f 142/4/2 141/4/2 143/4/2
f 144/4/2 145/4/2 146/4/2
f 146/4/2 145/4/2 147/4/2
f 148/4/2 149/4/2 150/4/2
f 150/4/2 149/4/2 151/4/2
f 152/4/2 153/4/2 154/4/2
f 154/4/2 153/4/2 155/4/2
f 161/4/3 157/4/3 156/4/3
f 162/4/3 159/4/3 158/4/3
f 165/4/3 161/4/3 160/4/3
f 166/4/3 157/4/3 161/4/3
f 166/4/3 161/4/3 165/4/3
f 167/4/3 163/4/3 162/4/3
f 167/4/3 162/4/3 158/4/3
f 168/4/3 163/4/3 167/4/3
f 171/4/3 166/4/3 165/4/3
f 171/4/3 169/4/3 168/4/3
f 171/4/3 168/4/3 167/4/3
f 171/4/3 167/4/3 166/4/3
f 171/4/3 165/4/3 164/4/3
f 172/4/3 169/4/3 171/4/3
f 173/4/3 169/4/3 172/4/3
f 174/4/3 169/4/3 173/4/3
f 175/4/3 169/4/3 174/4/3
f 176/4/3 169/4/3 175/4/3
f 179/4/3 171/4/3 170/4/3
f 179/4/3 172/4/3 171/4/3
f 180/3/3 173/3/3 172/3/3
f 180/4/3 172/4/3 179/4/3
f 181/4/3 174/4/3 173/4/3
f 181/3/3 173/3/3 180/3/3
f 182/4/3 174/4/3 181/4/3
f 183/4/3 174/4/3 182/4/3
f 184/3/3 175/3/3 174/3/3
f 184/4/3 174/4/3 183/4/3
f 185/4/3 177/4/3 176/4/3
f 185/3/3 175/3/3 184/3/3
f 185/4/3 176/4/3 175/4/3
f 186/4/3 177/4/3 185/4/3
f 188/3/3 182/3/3 181/3/3
f 188/4/3 179/4/3 178/4/3
f 188/4/3 180/4/3 179/4/3
f 188/4/3 181/4/3 180/4/3
f 189/4/3 183/4/3 182/4/3
f 189/3/3 182/3/3 188/3/3
f 190/4/3 183/4/3 189/4/3
f 191/4/3 183/4/3 190/4/3
f 192/3/3 184/3/3 183/3/3
f 192/4/3 183/4/3 191/4/3
f 193/4/3 187/4/3 186/4/3
f 193/3/3 184/3/3 192/3/3
f 193/4/3 186/4/3 185/4/3
f 193/4/3 185/4/3 184/4/3
f 194/4/3 189/4/3 188/4/3
f 194/4/3 188/4/3 178/4/3
f 195/4/3 189/4/3 194/4/3
f 196/3/3 190/3/3 189/3/3
f 196/4/3 189/4/3 195/4/3
f 197/2/3 191/2/3 190/2/3
f 197/3/3 190/3/3 196/3/3
f 198/3/3 192/3/3 191/3/3
f 198/2/3 191/2/3 197/2/3
f 199/4/3 193/4/3 192/4/3
f 199/3/3 192/3/3 198/3/3
f 200/4/3 187/4/3 193/4/3
f 200/4/3 193/4/3 199/4/3
f 201/4/3 187/4/3 200/4/3
f 203/4/3 196/4/3 195/4/3
f 204/2/3 197/2/3 196/2/3
f 204/4/3 196/4/3 203/4/3
f 205/1/3 198/1/3 197/1/3
f 205/2/3 197/2/3 204/2/3
f 206/2/3 199/2/3 198/2/3
f 206/1/3 198/1/3 205/1/3
f 207/4/3 200/4/3 199/4/3
f 207/2/3 199/2/3 206/2/3
f 208/4/3 200/4/3 207/4/3
f 210/4/3 203/4/3 202/4/3
f 210/4/3 204/4/3 203/4/3
f 211/3/3 205/3/3 204/3/3
f 211/4/3 204/4/3 210/4/3
f 212/2/3 206/2/3 205/2/3
f 212/3/3 205/3/3 211/3/3
f 213/3/3 207/3/3 206/3/3
f 213/2/3 206/2/3 212/2/3
f 214/4/3 209/4/3 208/4/3
f 214/3/3 207/3/3 213/3/3
f 214/4/3 208/4/3 207/4/3
f 215/4/3 209/4/3 214/4/3
f 216/4/3 210/4/3 202/4/3
f 217/4/3 210/4/3 216/4/3
f 218/4/3 210/4/3 217/4/3
f 219/3/3 211/3/3 210/3/3
f 219/4/3 210/4/3 218/4/3
f 220/4/3 213/4/3 212/4/3
f 220/3/3 211/3/3 219/3/3
f 220/4/3 212/4/3 211/4/3
f 220/4/3 214/4/3 213/4/3
f 221/3/3 215/3/3 214/3/3
f 221/4/3 214/4/3 220/4/3
f 222/4/3 209/4/3 215/4/3
f 222/3/3 215/3/3 221/3/3
f 223/4/3 209/4/3 222/4/3
f 224/4/3 209/4/3 223/4/3
f 225/4/3 209/4/3 224/4/3
f 226/4/3 218/4/3 217/4/3
f 227/4/3 218/4/3 226/4/3
f 228/3/3 219/3/3 218/3/3
f 228/4/3 218/4/3 227/4/3
f 229/4/3 221/4/3 220/4/3
f 229/3/3 219/3/3 228/3/3
f 229/4/3 220/4/3 219/4/3
f 229/4/3 222/4/3 221/4/3
f 230/3/3 223/3/3 222/3/3
f 230/4/3 222/4/3 229/4/3
f 231/4/3 224/4/3 223/4/3
f 231/3/3 223/3/3 230/3/3
f 232/4/3 224/4/3 231/4/3
f 233/4/3 224/4/3 232/4/3
f 234/4/3 228/4/3 227/4/3
f 234/4/3 232/4/3 231/4/3
f 234/4/3 231/4/3 230/4/3
f 234/4/3 229/4/3 228/4/3
f 234/4/3 230/4/3 229/4/3
f 235/4/3 232/4/3 234/4/3
f 236/4/3 232/4/3 235/4/3
f 237/4/3 232/4/3 236/4/3
f 238/4/3 232/4/3 237/4/3
f 239/4/3 232/4/3 238/4/3
f 240/4/3 236/4/3 235/4/3
f 241/4/3 236/4/3 240/4/3
f 242/4/3 238/4/3 237/4/3
f 243/4/3 238/4/3 242/4/3
f 244/4/3 236/4/3 241/4/3
f 245/4/3 236/4/3 244/4/3
f 246/4/3 242/4/3 237/4/3
f 247/4/3 242/4/3 246/4/3
f 250/5/3 249/5/3 248/5/3
f 251/5/3 249/5/3 250/5/3
f 252/5/3 249/5/3 251/5/3
f 254/5/3 253/5/3 252/5/3
f 254/5/3 252/5/3 251/5/3
f 255/5/3 253/5/3 254/5/3
f 258/5/3 253/5/3 255/5/3
f 259/5/3 257/5/3 256/5/3
f 260/5/3 257/5/3 259/5/3
f 261/5/3 258/5/3 255/5/3
f 261/5/3 259/5/3 258/5/3
f 261/5/3 260/5/3 259/5/3
f 262/5/3 260/5/3 261/5/3
f 263/4/4 264/4/4 268/4/4
f 265/4/4 266/4/4 269/4/4
f 267/4/4 268/4/4 272/4/4
f 268/4/4 264/4/4 273/4/4
f 272/4/4 268/4/4 273/4/4
f 269/4/4 270/4/4 274/4/4
f 265/4/4 269/4/4 274/4/4
f 274/4/4 270/4/4 275/4/4
f 272/4/4 273/4/4 278/4/4
f 275/4/4 276/4/4 278/4/4
f 274/4/4 275/4/4 278/4/4
f 273/4/4 274/4/4 278/4/4
f 271/4/4 272/4/4 278/4/4
f 278/4/4 276/4/4 279/4/4
f 279/4/4 276/4/4 280/4/4
f 280/4/4 276/4/4 281/4/4
f 281/4/4 276/4/4 282/4/4
f 282/4/4 276/4/4 283/4/4
f 277/4/4 278/4/4 286/4/4
f 278/4/4 279/4/4 286/4/4
f 279/3/4 280/3/4 287/3/4
f 286/4/4 279/4/4 287/4/4
f 280/4/4 281/4/4 288/4/4
f 287/3/4 280/3/4 288/3/4
f 288/4/4 281/4/4 289/4/4
f 289/4/4 281/4/4 290/4/4
f 281/3/4 282/3/4 291/3/4
f 290/4/4 281/4/4 291/4/4
f 283/4/4 284/4/4 292/4/4
f 291/3/4 282/3/4 292/3/4
f 282/4/4 283/4/4 292/4/4
f 292/4/4 284/4/4 293/4/4
f 288/3/4 289/3/4 295/3/4
f 285/4/4 286/4/4 295/4/4
f 286/4/4 287/4/4 295/4/4
f 287/4/4 288/4/4 295/4/4
f 289/4/4 290/4/4 296/4/4
f 295/3/4 289/3/4 296/3/4
f 296/4/4 290/4/4 297/4/4
f 297/4/4 290/4/4 298/4/4
f 290/3/4 291/3/4 299/3/4
f 298/4/4 290/4/4 299/4/4
f 293/4/4 294/4/4 300/4/4
f 299/3/4 291/3/4 300/3/4
f 292/4/4 293/4/4 300/4/4
f 291/4/4 292/4/4 300/4/4
f 295/4/4 296/4/4 301/4/4
f 285/4/4 295/4/4 301/4/4
f 301/4/4 296/4/4 302/4/4
f 296/3/4 297/3/4 303/3/4
f 302/4/4 296/4/4 303/4/4
f 297/2/4 298/2/4 304/2/4
f 303/3/4 297/3/4 304/3/4
f 298/3/4 299/3/4 305/3/4
f 304/2/4 298/2/4 305/2/4
f 299/4/4 300/4/4 306/4/4
f 305/3/4 299/3/4 306/3/4
f 300/4/4 294/4/4 307/4/4
f 306/4/4 300/4/4 307/4/4
f 307/4/4 294/4/4 308/4/4
f 302/4/4 303/4/4 310/4/4
f 310/4/4 303/4/4 311/4/4
f 311/4/4 303/4/4 312/4/4
f 305/2/4 306/2/4 314/2/4
f 306/4/4 307/4/4 315/4/4
f 314/2/4 306/2/4 315/2/4
f 315/4/4 307/4/4 316/4/4
f 309/4/4 310/4/4 318/4/4
f 310/4/4 311/4/4 318/4/4
f 318/4/4 311/4/4 319/4/4
f 312/3/4 313/3/4 321/3/4
f 313/2/4 314/2/4 322/2/4
f 321/3/4 313/3/4 322/3/4
f 314/3/4 315/3/4 323/3/4
f 322/2/4 314/2/4 323/2/4
f 316/4/4 317/4/4 324/4/4
f 323/3/4 315/3/4 324/3/4
f 315/4/4 316/4/4 324/4/4
f 324/4/4 317/4/4 325/4/4
f 319/4/4 320/4/4 327/4/4
f 320/3/4 321/3/4 328/3/4
f 327/4/4 320/4/4 328/4/4
f 322/4/4 323/4/4 329/4/4
f 328/3/4 321/3/4 329/3/4
f 321/4/4 322/4/4 329/4/4
f 323/4/4 324/4/4 329/4/4
f 324/3/4 325/3/4 330/3/4
f 329/4/4 324/4/4 330/4/4
f 325/4/4 317/4/4 331/4/4
f 330/3/4 325/3/4 331/3/4
f 331/4/4 317/4/4 332/4/4
f 332/4/4 317/4/4 333/4/4
f 333/4/4 317/4/4 334/4/4
f 326/4/4 327/4/4 335/4/4
f 335/4/4 327/4/4 336/4/4
f 327/3/4 328/3/4 337/3/4
f 336/4/4 327/4/4 337/4/4
f 328/4/4 329/4/4 338/4/4
f 337/3/4 328/3/4 338/3/4
f 329/4/4 330/4/4 338/4/4
f 330/4/4 331/4/4 338/4/4
f 331/3/4 332/3/4 339/3/4
f 338/4/4 331/4/4 339/4/4
f 332/4/4 333/4/4 340/4/4
f 339/3/4 332/3/4 340/3/4
f 340/4/4 333/4/4 341/4/4
f 341/4/4 333/4/4 342/4/4
f 336/4/4 337/4/4 343/4/4
f 340/4/4 341/4/4 343/4/4
f 339/4/4 340/4/4 343/4/4
f 337/4/4 338/4/4 343/4/4
f 338/4/4 339/4/4 343/4/4
f 343/4/4 341/4/4 344/4/4
f 344/4/4 341/4/4 345/4/4
f 345/4/4 341/4/4 346/4/4
f 346/4/4 341/4/4 347/4/4
f 347/4/4 341/4/4 348/4/4
f 344/4/4 345/4/4 349/4/4
f 349/4/4 345/4/4 350/4/4
f 346/4/4 347/4/4 351/4/4
f 351/4/4 347/4/4 352/4/4
f 350/4/4 345/4/4 353/4/4
f 353/4/4 345/4/4 354/4/4
f 346/4/4 351/4/4 355/4/4
f 355/4/4 351/4/4 356/4/4
f 357/5/4 358/5/4 361/5/4
f 361/5/4 358/5/4 362/5/4
f 362/5/4 358/5/4 363/5/4
f 359/5/4 360/5/4 366/5/4
f 366/5/4 360/5/4 367/5/4
f 363/5/4 364/5/4 368/5/4
f 362/5/4 363/5/4 368/5/4
f 368/5/4 364/5/4 369/5/4
f 365/5/4 366/5/4 371/5/4
f 371/5/4 366/5/4 372/5/4
f 369/5/4 364/5/4 373/5/4
f 370/5/4 371/5/4 374/5/4
f 374/5/4 371/5/4 375/5/4
f 375/5/4 371/5/4 376/5/4
f 369/5/4 373/5/4 377/5/4
f 373/5/4 374/5/4 377/5/4
f 374/5/4 375/5/4 377/5/4
f 377/5/4 375/5/4 378/5/4
f 381/5/5 380/5/5 379/5/5
f 382/5/5 380/5/5 381/5/5
f 385/5/5 384/5/5 383/5/5
f 386/5/5 384/5/5 385/5/5
f 389/5/5 388/5/5 387/5/5
f 390/5/5 388/5/5 389/5/5
f 393/5/5 392/5/5 391/5/5
f 394/5/5 392/5/5 393/5/5
f 399/4/5 396/4/5 395/4/5
f 400/4/5 396/4/5 399/4/5
f 401/4/5 398/4/5 397/4/5
f 402/4/5 398/4/5 401/4/5
f 403/4/5 398/4/5 402/4/5
f 408/4/5 405/4/5 404/4/5
f 409/4/5 405/4/5 408/4/5
f 410/4/5 407/4/5 406/4/5
f 411/4/5 407/4/5 410/4/5
f 418/4/5 413/4/5 412/4/5
f 419/4/5 413/4/5 418/4/5
f 420/4/5 415/4/5 414/4/5
f 421/4/5 415/4/5 420/4/5
f 422/4/5 417/4/5 416/4/5
f 423/4/5 417/4/5 422/4/5
f 428/4/5 425/4/5 424/4/5
f 429/4/5 425/4/5 428/4/5
f 432/4/5 427/4/5 426/4/5
f 433/4/5 427/4/5 432/4/5
f 434/5/5 431/5/5 430/5/5
f 435/5/5 431/5/5 434/5/5
f 440/4/5 437/4/5 436/4/5
f 441/4/5 437/4/5 440/4/5
f 442/4/5 439/4/5 438/4/5
f 443/4/5 439/4/5 442/4/5
f 446/5/5 445/5/5 444/5/5
f 447/5/5 445/5/5 446/5/5
f 452/4/5 449/4/5 448/4/5
f 453/4/5 449/4/5 452/4/5
f 454/4/5 451/4/5 450/4/5
f 455/4/5 451/4/5 454/4/5
f 456/5/6 457/5/6 458/5/6
f 458/5/6 457/5/6 459/5/6
f 460/5/6 461/5/6 462/5/6
f 462/5/6 461/5/6 463/5/6
f 464/5/6 465/5/6 466/5/6
f 466/5/6 465/5/6 467/5/6
f 468/5/6 469/5/6 470/5/6
f 470/5/6 469/5/6 471/5/6
f 472/5/6 473/5/6 474/5/6
f 474/5/6 473/5/6 475/5/6
f 476/4/6 477/4/6 480/4/6
f 480/4/6 477/4/6 481/4/6
f 478/4/6 479/4/6 482/4/6
f 482/4/6 479/4/6 483/4/6
f 484/5/6 485/5/6 486/5/6
f 486/5/6 485/5/6 487/5/6
f 488/4/6 489/4/6 492/4/6
f 492/4/6 489/4/6 493/4/6
f 490/4/6 491/4/6 494/4/6
f 494/4/6 491/4/6 495/4/6
f 496/4/6 497/4/6 500/4/6
f 500/4/6 497/4/6 501/4/6
f 498/4/6 499/4/6 502/4/6
f 502/4/6 499/4/6 503/4/6
f 504/4/6 505/4/6 510/4/6
f 510/4/6 505/4/6 511/4/6
f 506/4/6 507/4/6 512/4/6
f 512/4/6 507/4/6 513/4/6
f 508/4/6 509/4/6 514/4/6
f 514/4/6 509/4/6 515/4/6
f 516/4/6 517/4/6 520/4/6
f 520/4/6 517/4/6 521/4/6
f 518/4/6 519/4/6 522/4/6
f 522/4/6 519/4/6 523/4/6
f 524/4/6 525/4/6 528/4/6
f 528/4/6 525/4/6 529/4/6
f 526/4/6 527/4/6 530/4/6
f 530/4/6 527/4/6 531/4/6
